<svg width="138" height="94" viewBox="0 0 138 94" fill="none" xmlns="http://www.w3.org/2000/svg">
<path fill-rule="evenodd" clip-rule="evenodd" d="M0 93.0165H137.033C137.033 87.5058 136.559 81.9951 135.61 76.7695L135.61 76.7693C135.42 75.5342 135.23 74.2991 134.946 73.064C133.049 64.3229 129.918 56.0569 125.744 48.456C125.175 47.4109 124.511 46.2707 123.847 45.2256C119.008 37.1496 113.032 29.9287 106.107 23.6579C105.253 22.8028 104.304 22.0427 103.355 21.2826C95.9558 15.1069 87.5127 10.0712 78.4055 6.46079C77.2672 5.98575 76.1289 5.60573 74.9905 5.2257L74.9903 5.22565C65.8832 1.99525 56.0171 0.190023 45.8664 0H44.0639H42.2615C32.0159 0.190023 22.2446 1.99525 13.1375 5.22565C12.5683 5.41567 11.9991 5.62944 11.4299 5.84321C10.8607 6.05699 10.2915 6.27076 9.7223 6.46079C6.38621 7.78335 3.13923 9.29715 0 10.9882V93.0165Z" fill="#FCDDD4"/>
</svg>
