<svg width="150" height="209" viewBox="0 0 150 209" fill="none" xmlns="http://www.w3.org/2000/svg">
<path d="M38.8281 173.09C38.8281 192.595 50.0582 208.354 63.8698 208.354H88.9115C102.723 208.354 113.824 192.466 113.824 173.09C113.824 153.585 102.594 137.826 88.7825 137.826C88.5243 137.826 88.3952 137.826 88.137 137.826H63.8698C49.9291 137.826 38.8281 153.585 38.8281 173.09Z" fill="#F48767"/>
<path d="M-254.184 112.638L-254.055 177.353L-172.217 177.224L-146.143 163.145L-69.856 163.015L-46.3633 176.966L120.151 176.578C122.862 176.578 125.056 174.383 125.056 171.67L124.927 111.863L-254.184 112.638Z" fill="#F36F49"/>
<path d="M-75.7925 127.363L54.8374 127.105L54.5793 8.65453C54.5793 3.87517 50.7069 0 45.8018 0L-76.1797 0.25836L-75.7925 127.363Z" fill="#F48767"/>
<path d="M22.3067 173.09C22.3067 192.595 11.2058 208.354 -2.60585 208.354H-27.5185V196.47C-36.6832 196.47 -44.1699 186.007 -44.1699 173.09C-44.1699 160.173 -36.8123 149.71 -27.6475 149.71V137.826H-2.73494C11.0767 137.955 22.1777 153.714 22.3067 173.09Z" fill="#F48767"/>
<path d="M141.319 76.5993C141.319 77.116 141.707 77.5035 142.094 77.6326C143.127 77.891 146.999 77.891 148.161 77.5035C148.677 77.3743 149.193 76.9868 149.193 76.3409C149.581 66.0072 149.581 55.9318 149.193 46.3731C149.193 45.7272 148.677 45.3397 148.161 45.2105C146.87 44.823 142.352 44.5646 140.932 45.0813C140.416 45.2105 140.029 45.7272 140.029 46.2439C139.77 56.061 140.158 66.1364 141.319 76.5993Z" fill="#F69276"/>
<path d="M134.996 85.7701C135.125 85.7701 135.254 85.7701 135.512 85.641L144.29 81.2491C146.355 80.2157 147.646 78.149 147.646 75.8239L147.517 43.4017C147.517 42.11 146.484 41.0767 145.193 41.0767H121.055C120.41 41.0767 120.022 41.5933 120.022 42.11C120.022 42.7559 120.539 43.1434 121.055 43.1434H145.193C145.322 43.1434 145.322 43.2726 145.322 43.2726L145.451 75.6947C145.451 77.2448 144.548 78.5365 143.257 79.1824L134.479 83.5742C133.963 83.8326 133.705 84.4784 133.963 84.9951C134.221 85.641 134.609 85.7701 134.996 85.7701Z" fill="#F69276"/>
<path d="M-58.2387 127.105C-58.2387 127.105 -54.8826 127.105 -49.7194 127.105H-29.1955C-13.8349 127.105 -10.2206 134.726 -0.797688 153.456L29.02 153.326C29.02 153.326 29.02 151.131 29.02 147.385L142.869 147.126C143.386 137.697 144.418 118.579 144.418 100.495C144.418 99.8494 144.418 99.3327 144.418 98.6868C144.418 93.52 143.515 87.8364 141.966 82.1528C135.899 59.9353 120.538 36.2968 114.213 27.6423C112.148 24.8005 110.341 22.3463 108.792 20.1504C104.403 14.3376 101.434 11.3667 95.8839 11.3667L-42.1036 11.7542C-44.9434 11.7542 -47.525 13.6918 -48.2995 16.4044C-60.1749 60.0645 -58.3678 93.2616 -58.2387 127.105ZM58.0632 27.1256C57.9341 26.4798 58.4504 25.9631 59.0959 25.9631L101.047 25.8339C103.5 25.8339 105.952 27.1257 107.501 29.3216C123.894 51.6683 130.478 72.0774 132.93 83.8321L135.512 96.2326C135.899 98.041 134.737 99.4619 132.93 99.4619H122.733C121.055 99.4619 119.248 98.6868 117.957 97.3951L97.0456 77.3735C94.7222 75.1775 91.6242 73.8859 88.6554 73.8859H63.6137L58.0632 27.1256Z" fill="#F36F49"/>
<path d="M36.376 82.541C37.2795 86.6745 38.3122 90.9372 39.2158 95.4583C39.8612 98.5584 42.5719 100.754 45.6698 100.883C86.4594 102.304 120.279 102.434 144.417 100.625C144.417 99.9793 144.417 99.4626 144.417 98.8167C144.417 93.6498 143.513 87.9663 141.964 82.2827L36.376 82.541Z" fill="#F6977C"/>
<path d="M-39.0065 26.0926L2.94481 25.9634C5.39735 25.9634 7.59173 27.2551 8.75346 29.451C20.4998 51.7978 22.9524 72.2069 22.9524 83.9616V96.3621C22.9524 98.1705 21.5325 99.5914 19.7253 99.5914H9.52795C7.8499 99.5914 6.17185 98.8164 5.13921 97.5246L-11.6413 77.503C-13.5775 75.3071 -16.2882 73.8862 -19.2571 74.0154H-44.2988L-40.2973 27.2551C-40.2973 26.6092 -39.781 26.0926 -39.0065 26.0926Z" fill="#F36F49"/>
<path d="M-58.2387 127.105C-58.2387 127.105 -54.8826 127.105 -49.7194 127.105H-29.1955C-13.8349 127.105 -10.2206 134.726 -0.797688 153.456L29.02 153.326C29.02 153.326 29.02 151.131 29.02 147.385L142.869 147.126C143.386 137.697 144.418 118.579 144.418 100.495C120.28 102.304 86.3319 102.304 45.6714 100.754C42.5735 100.624 39.8628 98.4285 39.2174 95.3284C38.3138 90.8074 37.2812 86.4155 36.3776 82.4112C30.8271 58.7728 24.7603 41.8512 16.7573 23.5088C16.1119 22.088 17.1446 20.4087 18.6935 20.4087L108.792 20.1504C104.403 14.3376 101.434 11.3667 95.8839 11.3667L-42.1036 11.7542C-44.9434 11.7542 -47.525 13.6918 -48.2995 16.4044C-60.1749 60.0645 -58.3678 93.2616 -58.2387 127.105ZM-44.427 74.015L-40.4255 27.2548C-40.4255 26.609 -39.7801 26.0923 -39.1347 26.0923L2.81656 25.9631C5.2691 25.9631 7.46348 27.2548 8.62521 29.4508C20.3716 51.7975 22.8241 72.2066 22.8241 83.9612V96.3617C22.8241 98.1702 21.4042 99.591 19.5971 99.591H9.3997C7.72164 99.591 6.0436 98.816 5.01095 97.5243L-11.7696 77.5026C-13.7058 75.3067 -16.4165 73.8859 -19.3853 74.015H-44.427Z" fill="#F7A58D"/>
<path d="M-53.206 123.747C-53.206 125.684 -51.657 127.105 -49.7208 127.105H-29.1969C-13.8363 127.105 -10.222 134.726 -0.799126 153.456L29.0186 153.327C29.0186 153.327 29.0186 151.131 29.0186 147.385L28.8895 95.0705C28.8895 69.1069 24.2426 52.7021 11.9799 26.7386C10.1727 22.8634 6.17125 20.4092 1.91158 20.4092L-42.4923 20.5383C-43.5249 20.5383 -44.2994 21.1842 -44.5576 22.0884C-53.3351 55.4147 -53.3351 109.667 -53.206 123.747ZM-44.4285 74.0155L-40.427 27.2553C-40.427 26.6094 -39.7816 26.0927 -39.1362 26.0927L2.81512 25.9636C5.26767 25.9636 7.46204 27.2553 8.62377 29.4512C20.3701 51.7979 22.8227 72.2071 22.8227 83.9617V96.3622C22.8227 98.1706 21.4028 99.5915 19.5956 99.5915H9.39826C7.72021 99.5915 6.04217 98.8165 5.00952 97.5247L-11.771 77.5031C-13.7072 75.3072 -16.4179 73.8863 -19.3868 74.0155H-44.4285Z" fill="#F58A6B"/>
<path d="M-38.7483 27.6426L2.94481 27.5135C4.75195 27.5135 6.42999 28.5468 7.33356 30.0969C19.4672 53.2187 21.4034 73.757 21.4034 83.8324V96.2329C21.4034 97.1371 20.6289 97.9122 19.7253 97.9122H9.52795C8.23714 97.9122 7.07541 97.3955 6.30093 96.4913L-10.4796 76.4696C-12.674 73.8862 -15.901 72.3361 -19.3862 72.3361H-42.6208L-38.7483 27.6426ZM-39.0065 26.0926C-39.6519 26.0926 -40.2973 26.6092 -40.2973 27.2551L-44.2988 74.0154H-19.2571C-16.2882 74.0154 -13.5775 75.3071 -11.6413 77.503L5.13921 97.5246C6.17185 98.8164 7.8499 99.5914 9.52795 99.5914H19.7253C21.5325 99.5914 22.9524 98.1705 22.9524 96.3621V83.9616C22.9524 72.2069 20.4998 51.7978 8.75346 29.451C7.59173 27.2551 5.39735 25.9634 2.94481 25.9634L-39.0065 26.0926Z" fill="#F7A58D"/>
<path d="M28.8916 122.713V147.385L73.9408 147.256C73.4245 140.797 72.2628 134.597 70.3266 128.784C69.5521 126.459 67.6159 124.78 65.1634 124.392C55.2241 123.23 42.5742 122.713 28.8916 122.713ZM120.023 147.256H142.354C142.741 141.83 143.128 133.047 143.515 123.1C138.094 123.359 133.06 123.875 128.542 124.521C126.09 124.909 124.153 126.588 123.379 128.913C121.572 134.597 120.539 140.797 120.023 147.256Z" fill="#F6977C"/>
<path d="M29.0195 172.186L133.446 171.928C140.545 171.928 146.354 166.115 146.354 159.011V156.815C146.354 154.748 144.676 153.198 142.74 153.198L29.1486 153.456L29.0195 172.186Z" fill="#F6977C"/>
<path d="M9.78742 172.187H29.0205V153.457H-0.539062L2.68796 166.503C3.46245 169.861 6.43131 172.187 9.78742 172.187Z" fill="#F7A58D"/>
<path d="M29.0195 147.514C29.0195 151.26 29.0195 153.456 29.0195 153.456L142.482 153.198C142.482 153.198 142.611 151.002 142.869 147.256L29.0195 147.514Z" fill="#F58A6B"/>
<g opacity="0.2">
<path d="M77.9424 121.421V146.093L116.021 145.964V121.292C116.021 118.321 113.311 115.996 109.954 115.996H83.8801C80.6531 116.125 77.9424 118.58 77.9424 121.421Z" fill="#F16036"/>
</g>
<path d="M128.8 145.189H136.803C138.868 145.189 140.676 143.51 140.676 141.314V137.31C140.676 135.243 138.998 133.435 136.803 133.435H128.8C126.735 133.435 124.928 135.114 124.928 137.31V141.314C124.928 143.51 126.735 145.189 128.8 145.189Z" fill="white"/>
<path d="M53.0267 145.448H61.0298C63.0951 145.448 64.9022 143.769 64.9022 141.573V137.569C64.9022 135.502 63.2241 133.693 61.0298 133.693H53.0267C50.9614 133.693 49.1543 135.373 49.1543 137.569V141.573C49.1543 143.64 50.8324 145.448 53.0267 145.448Z" fill="white"/>
<path d="M1.39549 76.858C1.39549 77.3746 1.7827 77.7622 2.16995 77.8913C7.20412 78.408 12.4965 78.408 17.9179 77.7622C18.5633 77.633 18.9505 77.2455 18.9505 76.5996C19.3378 66.2659 19.3378 56.1905 18.9505 46.6318C18.9505 45.9859 18.4342 45.5984 17.9179 45.4693C12.3674 44.8234 6.81689 44.8234 1.00822 45.4693C0.491896 45.5984 0.104675 46.1151 0.104675 46.6318C-0.282569 56.3197 0.233757 66.395 1.39549 76.858Z" fill="#F7A58D"/>
<path d="M21.4022 86.0289C21.7894 86.0289 22.1767 85.7706 22.3057 85.3831C22.5639 84.8664 22.3057 84.2205 21.7894 83.9622L13.012 79.6995C11.7212 79.0536 10.8176 77.6327 10.8176 76.2118L10.6885 43.7897C10.6885 43.6605 10.8176 43.6605 10.8176 43.6605H16.239C16.8844 43.6605 17.2716 43.1438 17.2716 42.6271C17.2716 41.9813 16.7553 41.5938 16.239 41.5938H10.8176C9.52677 41.5938 8.49414 42.6271 8.49414 43.9188L8.62319 76.341C8.62319 78.6661 9.914 80.7329 11.9793 81.7663L20.7568 86.0289C21.144 86.0289 21.2731 86.0289 21.4022 86.0289Z" fill="#F69276"/>
<path d="M80.604 173.716L117.134 173.636L117.11 162.657L80.5801 162.736L80.604 173.716Z" fill="#F8B4A0"/>
<path opacity="0.6" d="M16.5079 23.9C24.5109 42.2424 30.4486 59.1639 36.1282 82.8023L141.716 82.544C135.65 60.3264 120.289 36.688 113.964 28.0335C111.899 25.1917 110.092 22.7374 108.543 20.5415L18.4441 20.7999C16.8951 20.929 15.8625 22.4791 16.5079 23.9Z" fill="url(#paint0_linear_523_3)"/>
<defs>
<linearGradient id="paint0_linear_523_3" x1="65.7638" y1="0.781219" x2="116.316" y2="121.884" gradientUnits="userSpaceOnUse">
<stop stop-color="#F7A58D"/>
<stop offset="0.926161" stop-color="white"/>
</linearGradient>
</defs>
</svg>
